<?xml version="1.0" encoding="UTF-8" standalone="no"?>
<!-- Created with Inkscape (http://www.inkscape.org/) -->

<svg
   version="1.1"
   id="svg2"
   xml:space="preserve"
   width="2829.3333"
   height="2829.3333"
   viewBox="0 0 2829.3333 2829.3333"
   sodipodi:docname="2734_R0lVIE5JQyA2MTQtMDY.eps"
   xmlns:inkscape="http://www.inkscape.org/namespaces/inkscape"
   xmlns:sodipodi="http://sodipodi.sourceforge.net/DTD/sodipodi-0.dtd"
   xmlns="http://www.w3.org/2000/svg"
   xmlns:svg="http://www.w3.org/2000/svg"><defs
     id="defs6" /><sodipodi:namedview
     id="namedview4"
     pagecolor="#ffffff"
     bordercolor="#666666"
     borderopacity="1.0"
     inkscape:pageshadow="2"
     inkscape:pageopacity="0.0"
     inkscape:pagecheckerboard="0" /><g
     id="g8"
     inkscape:groupmode="layer"
     inkscape:label="ink_ext_XXXXXX"
     transform="matrix(1.3333333,0,0,-1.3333333,0,2829.3333)"><g
       id="g10"
       transform="scale(0.1)">
    <path
         d="m 3584.86,8538.1 h -0.05 c 296.93,-1126.8 593.86,-2253.4 890.77,-3380.2 0.03,0 0.05,0 0.05,0 -127.21,482.9 -254.52,965.8 -381.73,1448.7 4261.94,1232.4 8763.2,1232.4 13025.3,0 33.8,128.3 67.6,256.5 101.3,384.7 v -0.1 c 451.7,1713.8 903.2,3427.7 1354.8,5141.5 -59.7,17.4 -112.2,48.3 -156.2,88.4 -861.3,-1059 -1660.5,-2152.8 -2394.7,-3276.2 -404.4,88.9 -810.3,167.6 -1217.3,236.3 l 22.1,-2.8 c -5.7,1261 -38.9,2524 -97.9,3788.3 -11.8,0.6 -23.7,1.5 -35.6,3.2 -29,4.2 -56.9,11.9 -83.4,22.2 -709.1,-1157.7 -1354.8,-2340.2 -1934.9,-3542.7 l 18.8,-2.4 c -343.1,28.6 -686.5,49.9 -1030.3,64.4 h 22.4 c -293.4,1258.7 -634.1,2512.1 -1020.5,3757.9 -20,-3.3 -40.4,-5.5 -61.3,-5.6 -20.9,0 -41.3,2.2 -61.4,5.6 -386.2,-1245.8 -726.78,-2499.2 -1020.32,-3757.9 h 22.16 c -383.42,-16.1 -766.63,-40.2 -1149.32,-73.8 l 1.27,0.2 c -570.19,1197.7 -1203.98,2376.1 -1898.69,3530.6 -5.75,-1.1 -11.33,-2.6 -17.17,-3.4 -36.17,-5.3 -71.92,-4.8 -106.65,0 -71.62,-1271.6 -114.52,-2541.8 -128.24,-3810.1 l 9.41,1.3 c -376.91,-66 -752.75,-141 -1127.35,-224.3 -732,1114.6 -1527.7,2200.1 -2385.04,3250.7 -32.64,-21.6 -68.63,-38.6 -107.56,-49.9 315.74,-1198.2 631.48,-2396.4 947.26,-3594.6"
         style="fill:#fabb36;fill-opacity:1;fill-rule:nonzero;stroke:none"
         id="path12" /><path
         d="m 4093.9,6606.6 c 127.21,-482.9 254.52,-965.8 381.73,-1448.7 127.23,-482.9 254.42,-965.7 381.67,-1448.5 3762.39,1088 7736,1088 11498.5,0 254.3,965.8 508.9,1931.5 763.5,2897.2 -0.1,0 -0.1,0 -0.1,0 -4262.1,1232.4 -8763.36,1232.4 -13025.3,0"
         style="fill:#f79137;fill-opacity:1;fill-rule:nonzero;stroke:none"
         id="path14" /><path
         d="m 2637.58,12132.7 h 0.02 c 38.93,11.3 74.92,28.3 107.56,49.9 145.96,96.6 222.98,285.8 176.75,472.2 -56.51,228 -281.01,364.3 -501.09,300.5 -220.02,-63.7 -346.5,-301.3 -283.19,-527.3 63.27,-226.3 286.82,-356.9 499.95,-295.3"
         style="fill:#fabb36;fill-opacity:1;fill-rule:nonzero;stroke:none"
         id="path16" /><path
         d="m 6483.03,12965 c 5.84,0.8 11.42,2.3 17.17,3.4 208.35,40.3 353.84,247.3 327.18,474.8 -27.48,234 -231.85,399.6 -456.56,367.1 -224.5,-32.8 -378.52,-250.7 -343.96,-483.8 28.67,-194.2 175.51,-337.3 349.52,-361.5 34.73,-4.8 70.48,-5.3 106.65,0"
         style="fill:#fabb36;fill-opacity:1;fill-rule:nonzero;stroke:none"
         id="path18" /><path
         d="m 10667.8,13269.3 c 190.5,31.5 338.9,205.1 341.9,418.4 3.6,235.8 -177,429.3 -403.2,429.4 -226.1,0.2 -406.7,-193.7 -403.1,-429.4 3.1,-213.1 151.3,-387.1 341.7,-418.4 20.1,-3.4 40.5,-5.6 61.4,-5.6 20.9,0.1 41.3,2.3 61.3,5.6"
         style="fill:#fabb36;fill-opacity:1;fill-rule:nonzero;stroke:none"
         id="path20" /><path
         d="m 14731.3,12966.7 c 203.8,-10.2 387.8,145.2 420.1,365.4 34.2,232.9 -119.9,450.9 -344.4,483.2 -224.7,32.4 -429,-133.5 -456.2,-367.5 -23.6,-202.8 89.5,-389.1 261.5,-455.7 26.5,-10.3 54.4,-18 83.4,-22.2 11.9,-1.7 23.8,-2.6 35.6,-3.2"
         style="fill:#fabb36;fill-opacity:1;fill-rule:nonzero;stroke:none"
         id="path22" /><path
         d="m 18575.3,12132.7 c 213.4,-61.6 436.9,69.2 500.2,295.3 63.5,226.1 -63.3,463.7 -283.4,527.3 -220.1,63.6 -444.5,-72.5 -500.9,-300.5 -40.7,-164.4 14.3,-330.4 127.9,-433.7 44,-40.1 96.5,-71 156.2,-88.4 0,0 0,0 0,0"
         style="fill:#fabb36;fill-opacity:1;fill-rule:nonzero;stroke:none"
         id="path24" />
    </g></g></svg>
